<svg xmlns="http://www.w3.org/2000/svg" width="250" height="49" viewBox="0 0 250 49" fill="none"><path d="M49.0546 13.3267L13.2285 48.2969H29.8388L37.004 41.3029V48.2969H49.0546V13.3267Z" fill="#0070C0"></path><path d="M52.4512 48.2969V41.3029V25.9208L64.5018 13.3267V48.2969H52.4512Z" fill="#0070C0"></path><path d="M43.9684 7.39144C33.872 -2.46381 17.5874 -2.46381 7.49092 7.39144C2.60554 12.1601 0 18.5184 0 25.1945C0 31.8706 2.60554 38.2289 7.49092 42.9975L9.60791 45.064L19.3787 35.5266L17.4245 33.4602C12.702 28.8505 12.702 21.5385 17.4245 16.9288C22.1471 12.3191 29.638 12.3191 34.3605 16.9288L36.4775 18.9952L46.2483 9.45787L43.9684 7.39144Z" fill="#00365D"></path><path d="M88.0722 46.676C86.6906 47.6572 84.7881 48.1478 82.3645 48.1478C78.8992 48.1478 76.1019 47.0867 73.9729 44.9646C71.8438 42.8424 70.7793 39.9215 70.7793 36.202C70.7793 32.7335 71.8778 29.9154 74.0748 27.7476C76.2718 25.5798 78.9898 24.4958 82.2287 24.4958C84.471 24.4958 86.3962 24.9066 88.0043 25.7281V27.9529C87.0077 27.4281 86.1244 27.063 85.3543 26.8576C84.5842 26.6294 83.5197 26.5153 82.1607 26.5153C79.5334 26.5153 77.3363 27.4167 75.5697 29.2194C73.8257 30.9993 72.9537 33.3268 72.9537 36.202C72.9537 39.2142 73.8143 41.6216 75.5357 43.4243C77.2797 45.227 79.59 46.1283 82.4665 46.1283C84.7088 46.1283 86.5774 45.535 88.0722 44.3484V46.676Z" fill="#00365D"></path><path d="M111.196 36.2363C111.196 39.8873 110.302 42.7853 108.512 44.9303C106.723 47.0753 104.288 48.1478 101.208 48.1478C98.1728 48.1478 95.7266 47.0639 93.8694 44.8961C92.0348 42.7283 91.1175 39.8417 91.1175 36.2363C91.1175 32.608 92.0121 29.7214 93.8014 27.5764C95.6134 25.4086 98.0595 24.3247 101.14 24.3247C104.311 24.3247 106.78 25.3972 108.546 27.5422C110.313 29.6644 111.196 32.5624 111.196 36.2363ZM93.2918 36.2363C93.2918 39.2712 94.0053 41.6786 95.4322 43.4585C96.8818 45.2156 98.807 46.0941 101.208 46.0941C103.699 46.0941 105.624 45.227 106.983 43.4927C108.342 41.7357 109.022 39.3168 109.022 36.2363C109.022 33.1329 108.331 30.714 106.949 28.9798C105.591 27.2455 103.654 26.3784 101.14 26.3784C98.6937 26.3784 96.7685 27.257 95.3642 29.014C93.9826 30.7483 93.2918 33.1557 93.2918 36.2363Z" fill="#00365D"></path><path d="M128.605 41.9182C128.605 43.9263 127.937 45.4666 126.6 46.5391C125.264 47.5888 123.554 48.1136 121.47 48.1136C119.115 48.1136 117.11 47.6116 115.457 46.6075V44.2458C116.136 44.7706 117.008 45.2042 118.073 45.5464C119.16 45.8887 120.259 46.0599 121.368 46.0599C122.977 46.0599 124.222 45.7062 125.106 44.9988C126.012 44.2914 126.465 43.2759 126.465 41.9524C126.465 40.9484 126.125 40.1383 125.445 39.5222C124.766 38.8833 123.781 38.2786 122.49 37.7081C122.308 37.6168 121.912 37.4457 121.3 37.1947C120.689 36.9208 120.259 36.7269 120.009 36.6128C119.76 36.4987 119.375 36.3047 118.854 36.0309C118.333 35.7571 117.948 35.5175 117.699 35.3121C117.473 35.1067 117.178 34.8329 116.816 34.4906C116.453 34.1483 116.193 33.806 116.034 33.4637C115.876 33.1215 115.729 32.7221 115.593 32.2657C115.457 31.7865 115.389 31.2845 115.389 30.7597C115.389 28.8201 116.08 27.314 117.461 26.2415C118.843 25.1462 120.53 24.5985 122.524 24.5985C124.426 24.5985 126.012 24.9408 127.28 25.6254V27.9872C126.736 27.6221 126.023 27.314 125.14 27.063C124.256 26.812 123.396 26.6865 122.558 26.6865C121.04 26.6865 119.828 27.0516 118.922 27.7818C118.016 28.4892 117.563 29.4362 117.563 30.6228C117.563 31.2389 117.677 31.7865 117.903 32.2657C118.152 32.7449 118.56 33.1899 119.126 33.6007C119.692 33.9886 120.179 34.2966 120.587 34.5248C121.017 34.7302 121.663 35.0154 122.524 35.3805C123.316 35.7228 123.916 35.9967 124.324 36.202C124.732 36.3846 125.253 36.6812 125.887 37.092C126.521 37.5027 126.997 37.9135 127.314 38.3242C127.654 38.7121 127.948 39.2256 128.197 39.8645C128.469 40.4806 128.605 41.1652 128.605 41.9182Z" fill="#00365D"></path><path d="M146.113 26.7549H139.76V47.874H137.654V26.7549H131.335V24.8039H146.113V26.7549Z" fill="#00365D"></path><path d="M153.869 47.8738H148.637L150.607 24.8037H156.349L159.542 33.1555C160.086 34.5475 160.55 35.8253 160.935 36.9891C161.32 38.1529 161.57 38.9744 161.683 39.4536L161.853 40.1381C162.215 38.6321 163.008 36.3045 164.231 33.1555L167.458 24.8037H173.2L175.578 47.8738H170.346L169.497 38.9401L169.055 32.1971C168.466 33.9085 167.651 36.1562 166.609 38.9401L163.382 47.6342H160.29L157.096 38.9401C156.575 37.5253 156.134 36.2589 155.771 35.1407C155.409 34.0226 155.171 33.2468 155.058 32.8132L154.888 32.1971C154.888 33.8172 154.786 36.0649 154.582 38.9401L153.869 47.8738Z" fill="#00365D"></path><path d="M185.043 47.8738H179.811V24.8037H185.043V47.8738Z" fill="#00365D"></path><path d="M195.022 47.8738H189.789V24.8037H195.531L200.865 34.3535C201.613 35.6998 202.258 36.9663 202.802 38.1529C203.368 39.3166 203.73 40.1381 203.889 40.6173L204.161 41.3704C203.934 39.6817 203.821 37.3428 203.821 34.3535V24.8037H209.053V47.8738H203.311L197.841 38.324C197.117 37.0918 196.471 35.8824 195.905 34.6958C195.361 33.4864 194.988 32.5964 194.784 32.0259L194.512 31.1702C194.852 33.2239 195.022 35.6085 195.022 38.324V47.8738Z" fill="#00365D"></path><path d="M227.714 47.8738H213.479V24.8037H227.578V29.0138H218.745V34.2508H226.627V38.4267H218.745V43.6637H227.714V47.8738Z" fill="#00365D"></path><path d="M239.773 29.0823H237.191V35.5857H239.671C241.936 35.5857 243.068 34.4676 243.068 32.2313C243.068 31.2501 242.774 30.4857 242.185 29.938C241.596 29.3675 240.792 29.0823 239.773 29.0823ZM237.191 47.8738H231.959V24.8037H239.875C242.434 24.8037 244.484 25.4883 246.024 26.8574C247.587 28.2266 248.368 30.0065 248.368 32.1971C248.368 35.483 246.975 37.7535 244.19 39.0086L249.999 47.8738H243.748L238.788 39.8643H237.191V47.8738Z" fill="#00365D"></path></svg>