<?xml version="1.0" encoding="UTF-8"?> <svg xmlns="http://www.w3.org/2000/svg" width="864" height="161" viewBox="0 0 864 161" fill="none"><path d="M339.548 12.5513H319.147V1.3242H373.226V12.5513H352.825V69.6572H339.548V12.5513Z" fill="#FFC629"></path><path d="M389.822 1.3242H401.926L426.915 69.6572H413.444L407.881 54.5265H383.867L378.302 69.6572H364.831L389.822 1.3242ZM404.952 43.5934L395.873 17.626H395.679L386.892 43.5934H404.952Z" fill="#FFC629"></path><path d="M432.187 1.3242H445.463V29.9262H455.811L472.309 1.3242H487.243L467.232 35.3927L488.902 69.6572H473.674L455.713 41.25H445.463V69.6575H432.187V1.3242Z" fill="#FFC629"></path><path d="M494.173 1.3242H543.568V12.5513H507.448V29.83H540.736V40.86H507.449V58.4323H543.569V69.6579H494.173V1.3242Z" fill="#FFC629"></path><path d="M550.791 58.4316V12.5516L562.018 1.32449H597.16L608.387 12.5516V58.4316L597.16 69.6572H562.018L550.791 58.4316ZM590.131 58.3337L595.11 53.3554V17.626L590.131 12.6478H569.046L564.068 17.626V53.3554L569.046 58.3337H590.131Z" fill="#FFC629"></path><path d="M618.537 1.3242H666.956V12.5513H631.813V31.4891H662.27V42.7147H631.813V69.6572H618.537V1.3242Z" fill="#FFC629"></path><path d="M673.203 1.3242H721.622V12.5513H686.478V31.4891H716.936V42.7147H686.478V69.6572H673.203V1.3242Z" fill="#FFC629"></path><path d="M751.392 59.2124V40.6649L757.445 34.514L754.224 31.1952V11.867L764.668 1.3242H790.83L801.079 11.6726V18.895H788.194V15.7722L785.167 12.6478H770.135L767.109 15.7722V27.0957L770.329 30.4145H791.221V23.9713H803.715V30.4145H810.158V41.5436H803.911V59.1144L793.466 69.6572H761.838L751.392 59.2124ZM787.804 58.3337L791.025 55.0148V41.5436H767.499L764.278 44.7644V55.1128L767.499 58.3337H787.804Z" fill="#FFC629"></path><path d="M335.502 87.9761H384.897V99.2022H348.778V116.481H382.066V127.512H348.778V145.083H384.897V156.309H335.502V87.9761Z" fill="#002D74"></path><path d="M391.63 145.766V136.004H404.711V141.764L407.932 144.985H428.139L431.458 141.666V130.342L428.237 127.121H402.368L391.826 116.578V98.5187L402.368 87.9761H433.216L443.759 98.5187V108.379H430.677V102.521L427.456 99.3H408.128L404.906 102.521V112.576L408.128 115.797H433.996L444.54 126.34V145.571L433.802 156.309H402.173L391.63 145.766Z" fill="#002D74"></path><path d="M466.796 99.2022H446.394V87.9761H500.474V99.2022H480.072V156.309H466.796V99.2022Z" fill="#002D74"></path><path d="M507.21 87.9761H520.486V156.309H507.21V87.9761Z" fill="#002D74"></path><path d="M532.102 87.9761H544.401L564.706 132.1H564.901L585.304 87.9763H597.603V156.309H584.815V114.723H584.62L568.904 146.742H560.704L545.084 114.723H544.889V156.309H532.102V87.9761Z" fill="#002D74"></path><path d="M627.865 87.9761H639.968L664.958 156.309H651.488L645.923 141.178H621.91L616.345 156.309H602.874L627.865 87.9761ZM642.995 130.245L633.916 104.279H633.722L624.936 130.245H642.995Z" fill="#002D74"></path><path d="M676.966 99.2022H656.563V87.9761H710.644V99.2022H690.242V156.309H676.966V99.2022Z" fill="#002D74"></path><path d="M717.381 87.9761H730.657V156.309H717.381V87.9761Z" fill="#002D74"></path><path d="M742.271 87.9761H754.18L784.637 134.345H784.832V87.9761H797.62V156.309H785.711L755.254 110.038H755.059V156.309H742.271V87.9761Z" fill="#002D74"></path><path d="M807.771 145.083V99.2027L818.998 87.9766H852.969L864 99.007V109.452H850.724V103.888L846.136 99.3H826.026L821.047 104.279V140.007L826.026 144.985H846.33L851.114 140.202V129.562H836.471V118.238H864V145.083L852.774 156.309H818.998L807.771 145.083Z" fill="#002D74"></path><path d="M215.485 93.0132L191.781 93.1164L186.545 93.1393C186.191 93.9293 185.893 94.7598 185.5 95.5236C185.055 96.3895 184.579 97.2465 184.074 98.0945C183.594 98.9026 183.082 99.7011 182.55 100.494C182.528 100.525 182.51 100.557 182.489 100.589C181.282 102.374 179.973 104.088 178.567 105.722L178.408 105.449L162.437 78.1C163.453 77.6234 164.412 77.1359 165.382 76.65C166.626 76.0259 167.828 75.393 168.996 74.7539C169.09 74.7024 169.185 74.6517 169.278 74.6002C170.368 74.0002 171.419 73.3923 172.441 72.7783C172.615 72.6742 172.788 72.5697 172.959 72.465C173.898 71.893 174.807 71.3152 175.688 70.7317C175.937 70.5665 176.179 70.4002 176.423 70.2338C177.217 69.6959 177.99 69.1538 178.733 68.6057C179.048 68.3737 179.349 68.1387 179.655 67.9045C180.306 67.4081 180.949 66.9095 181.56 66.4051C181.941 66.0894 182.3 65.7693 182.666 65.4507C183.172 65.0107 183.684 64.5719 184.16 64.1262C184.63 63.6862 185.064 63.2396 185.505 62.7941C185.844 62.4523 186.201 62.1141 186.523 61.7684C187.272 60.9632 187.983 60.1503 188.641 59.3264C189.215 58.6083 189.74 57.871 190.254 57.1288C190.731 56.4258 191.184 55.7134 191.614 54.9917C195.164 49.0162 196.982 42.1712 196.866 35.2217C196.817 23.9718 192.739 14.939 184.632 8.1233C180.506 4.68284 175.74 2.09329 170.609 0.503998L286.114 0L286.257 32.668L215.223 32.9775L215.346 61.1023L270.225 60.8632L270.364 92.774L219.097 92.9974L215.485 93.0132ZM215.633 127.087L215.529 103.157C214.485 105.664 213.312 108.114 212.014 110.499C207.312 118.951 201.282 126.592 194.156 133.131L209.524 159.675L286.808 159.338L286.667 126.778L215.633 127.087Z" fill="#002D74"></path><path d="M109.259 33.1148L86.5706 33.2136L86.8164 89.6236C80.3853 97.913 76.9088 108.114 76.9395 118.605C76.9921 130.672 80.3696 140.563 87.072 148.278L87.124 160.208L46.343 160.385L45.79 33.3913L0.141296 33.5902L0 1.24669L135.622 0.655792C130.366 2.42378 125.516 5.22136 121.354 8.88509C117.789 11.8829 114.877 15.5796 112.796 19.747C110.716 23.9144 109.512 28.464 109.259 33.1148Z" fill="#002D74"></path><path d="M132.857 91.7506L153.572 128.872C150.227 131.457 146.518 133.533 142.565 135.032C139.118 136.383 135.458 137.113 131.757 137.189C129.152 137.275 126.56 136.798 124.157 135.791C121.754 134.784 119.596 133.271 117.831 131.354C114.379 127.473 112.421 122.49 112.309 117.297C112.197 112.104 113.939 107.041 117.221 103.015C120.52 98.9979 125.732 95.2431 132.857 91.7506ZM148.601 55.5518C155.223 52.7825 160.006 49.841 162.949 46.7271C164.353 45.3171 165.463 43.6431 166.217 41.8018C166.97 39.9604 167.351 37.9881 167.338 35.9987C167.32 31.8161 166.115 28.522 163.725 26.1165C161.335 23.711 158.012 22.5176 153.757 22.5365C150.099 22.3866 146.529 23.6848 143.821 26.1496C142.571 27.3482 141.591 28.7991 140.945 30.4059C140.299 32.0128 140.003 33.7387 140.076 35.4689C140.153 38.7155 140.884 41.9131 142.226 44.8707C143.932 48.6647 146.071 52.2489 148.601 55.5518V55.5518Z" fill="#FFC629"></path><path d="M166.903 152.37C164.585 153.728 162.314 154.992 160.09 156.165C157.29 157.639 154.364 158.862 151.347 159.817C150.685 160.027 149.98 160.193 149.301 160.385H171.405L166.903 152.37Z" fill="#002D74"></path></svg> 