<svg xmlns="http://www.w3.org/2000/svg" id="Layer_1" x="0" y="0" viewBox="0 0 358.9 72" style="enable-background:new 0 0 358.9 72" xml:space="preserve"><style>.st0{fill:#006db6}.st1{fill:#6c6863}</style><path class="st0" d="M123 28.7c0-4.1-.1-7.5-.3-10.6h5.2l.3 5.6h.1c2.3-3.9 6.2-6.2 11.5-6.2 7.9 0 13.8 6.6 13.8 16.4 0 11.6-7.2 17.4-14.8 17.4-4.3 0-8-1.9-10-5.1h-.1v17.6H123V28.7zm5.9 8.6c0 .9.1 1.7.3 2.4 1.1 4.1 4.6 6.9 8.8 6.9 6.2 0 9.8-5.1 9.8-12.5 0-6.4-3.4-12-9.6-12-4 0-7.8 2.8-8.9 7.2-.2.7-.4 1.6-.4 2.3v5.7zM158 3h5.9v47.5H158V3zM193.4 42.7c0 2.8.1 5.6.5 7.8h-5.3l-.5-4.1h-.2c-1.8 2.5-5.3 4.8-9.9 4.8-6.6 0-9.9-4.6-9.9-9.3 0-7.8 7-12.1 19.5-12v-.7c0-2.6-.7-7.5-7.4-7.4-3.1 0-6.2.9-8.5 2.4l-1.3-3.9c2.7-1.7 6.6-2.8 10.7-2.8 9.9 0 12.3 6.8 12.3 13.2v12zm-5.7-8.7c-6.4-.1-13.7 1-13.7 7.3 0 3.9 2.5 5.6 5.5 5.6 4.3 0 7-2.7 8-5.4.2-.7.3-1.3.3-1.9V34zM199.7 26.9c0-3.4-.1-6.1-.3-8.8h5.2l.3 5.4h.1c1.6-3 5.4-6 10.7-6 4.5 0 11.4 2.7 11.4 13.8v19.3h-5.9V31.8c0-5.2-1.9-9.6-7.5-9.6-3.8 0-6.8 2.7-7.9 6-.3.7-.4 1.7-.4 2.7v19.5h-5.9V26.9z"></path><path class="st1" d="M232.7 44.5c1.8 1.1 4.9 2.3 7.8 2.3 4.2 0 6.2-2.1 6.2-4.8 0-2.8-1.7-4.3-6-5.9-5.9-2.1-8.6-5.3-8.6-9.2 0-5.2 4.3-9.5 11.2-9.5 3.3 0 6.2.9 7.9 2l-1.4 4.3c-1.3-.8-3.6-1.9-6.6-1.9-3.5 0-5.4 2-5.4 4.4 0 2.7 1.9 3.9 6.1 5.6 5.6 2.1 8.5 4.9 8.5 9.7 0 5.8-4.5 9.8-12 9.8-3.5 0-6.8-.9-9.1-2.3l1.4-4.5zM259.2 18.1l4.4 16.5c.9 3.6 1.7 7 2.3 10.3h.2c.7-3.3 1.8-6.8 2.9-10.2l5.3-16.5h5l5 16.2c1.2 3.9 2.1 7.3 2.9 10.6h.2c.5-3.3 1.4-6.7 2.5-10.5l4.6-16.3h5.8l-10.4 32.4h-5.4l-5-15.5c-1.1-3.6-2.1-6.8-2.9-10.6h-.1c-.8 3.9-1.8 7.2-2.9 10.7l-5.2 15.4H263l-9.8-32.4h6zM303 18.1h5.9v32.4H303zM316.1 50.5V22.6h-4.5v-4.5h4.5v-1.5c0-4.6 1.1-8.7 3.7-11.3 2.2-2.1 5.2-3 7.9-3 2.1 0 3.9.5 5 .9l-.7 4.5c-.9-.4-2-.7-3.7-.7-5 0-6.3 4.3-6.3 9.4v1.7h7.8v4.5H322v27.9h-5.9z"></path><path class="st1" d="M339.8 10.4v7.8h8.4v4.5h-8.4v17.5c0 4 1.1 6.3 4.4 6.3 1.6 0 2.5-.1 3.4-.4l.3 4.5c-1.1.4-2.9.8-5.2.8-2.7 0-5-.9-6.4-2.5-1.6-1.8-2.3-4.7-2.3-8.5V22.6h-5v-4.5h5v-6l5.8-1.7zM358.9 6.9c0 3.8-3.1 6.9-7 6.9s-7.1-3.1-7.1-6.9c0-3.8 3.1-6.9 7.1-6.9 3.9 0 7 3 7 6.9zm-12.4 0c0 3.1 2.3 5.5 5.4 5.5 3 0 5.2-2.4 5.2-5.4 0-3.1-2.3-5.5-5.3-5.5-3-.1-5.3 2.3-5.3 5.4zm4.3 3.5h-1.6V3.6c.6-.1 1.5-.2 2.6-.2 1.3 0 1.9.2 2.3.5.4.3.7.8.7 1.5 0 .8-.6 1.4-1.4 1.6v.1c.7.2 1 .8 1.2 1.7.2 1 .4 1.4.5 1.7h-1.7c-.2-.3-.3-.8-.5-1.7-.1-.7-.5-1-1.4-1h-.8v2.6zm0-3.8h.8c.9 0 1.6-.3 1.6-1 0-.6-.5-1-1.5-1-.4 0-.7 0-.9.1v1.9z"></path><path class="st0" d="m72.2 36.2 17.1-16.7 25 23H79.1l-6.9-6.3zM79.1 44.6l-7.4 6.8 17.6 16.2 25-23H79.1z"></path><path class="st1" d="m45.3 62.4 17.1-16.7 25.3 23.4H52.5l-7.2-6.7zM0 69.1h35.5l52.3-51H52.2L0 69.1zM160.2 67.6v1.5H158v-13h2.2v5.2c.7-1 1.7-1.8 3.2-1.8 2.2 0 4.4 1.7 4.4 4.9 0 3.1-2.1 4.9-4.4 4.9-1.6 0-2.6-.8-3.2-1.7zm5.4-3.2c0-1.9-1.2-3-2.7-3-1.5 0-2.7 1.2-2.7 3s1.3 3 2.7 3c1.4 0 2.7-1.1 2.7-3zM176.2 59.7h2.2l-3.7 9.7c-.7 1.9-1.6 2.7-3.1 2.7-.9 0-1.6-.2-2.2-.6l.7-1.6c.4.2.8.4 1.3.4.6 0 1-.3 1.3-1.1l-3.9-9.4h2.3l2.6 7 2.5-7.1zM185.5 62.9c0-3.6 2.7-6.5 6.4-6.5 2.3 0 3.7.8 4.9 1.9l-1.4 1.6c-1-.9-2.1-1.5-3.5-1.5-2.4 0-4.1 1.9-4.1 4.4 0 2.4 1.7 4.4 4.1 4.4 1.5 0 2.5-.6 3.6-1.6l1.4 1.4c-1.3 1.4-2.7 2.2-5.1 2.2-3.6.1-6.3-2.7-6.3-6.3zM198.4 64.4c0-2.7 2.1-5 5-5s5 2.2 5 4.9-2.1 4.9-5 4.9c-2.8.1-5-2.1-5-4.8zm7.9 0c0-1.7-1.2-3.1-2.9-3.1s-2.8 1.4-2.8 3 1.2 3 2.9 3c1.7.1 2.8-1.2 2.8-2.9zM210.8 59.7h2.2v1.4c.6-.9 1.5-1.6 2.9-1.6 2.1 0 3.4 1.4 3.4 3.6v6h-2.2v-5.4c0-1.5-.7-2.3-2-2.3-1.2 0-2.1.9-2.1 2.3V69h-2.2v-9.3zM221.2 67.9l1-1.5c1 .8 2.1 1.2 3.1 1.2.9 0 1.5-.4 1.5-1 0-.7-1-1-2.1-1.3-1.4-.4-2.9-1-2.9-2.7 0-1.8 1.5-2.9 3.4-2.9 1.2 0 2.5.4 3.5 1.1l-.9 1.5c-.9-.6-1.9-.9-2.7-.9-.8 0-1.3.4-1.3.9 0 .7 1 1 2.1 1.3 1.4.4 2.9 1.1 2.9 2.7 0 2-1.5 3-3.5 3-1.5 0-2.9-.5-4.1-1.4zM231.3 66.5v-5h-1.2v-1.9h1.2V57h2.2v2.6h2.5v1.9h-2.5v4.6c0 .8.4 1.2 1.2 1.2.5 0 .9-.1 1.3-.3v1.8c-.5.3-1.1.5-1.9.5-1.7 0-2.8-.7-2.8-2.8zM238.2 59.7h2.2v2.1c.6-1.4 1.7-2.4 3.3-2.3v2.3h-.1c-1.9 0-3.2 1.2-3.2 3.7v3.6h-2.2v-9.4zM245.6 65.7v-6h2.2V65c0 1.5.7 2.3 2 2.3 1.2 0 2.1-.9 2.1-2.3v-5.3h2.2v9.4h-2.2v-1.5c-.6.9-1.5 1.7-2.9 1.7-2.1 0-3.4-1.4-3.4-3.6zM256.4 64.4c0-2.7 2.1-5 4.9-5 1.8 0 2.9.7 3.8 1.6l-1.4 1.4c-.7-.7-1.4-1.2-2.4-1.2-1.6 0-2.7 1.4-2.7 3 0 1.7 1.2 3 2.8 3 1 0 1.7-.5 2.4-1.2l1.3 1.3c-.9 1-2 1.8-3.9 1.8-2.7.2-4.8-2-4.8-4.7zM267.6 66.5v-5h-1.2v-1.9h1.2V57h2.2v2.6h2.5v1.9h-2.5v4.6c0 .8.4 1.2 1.2 1.2.5 0 .9-.1 1.3-.3v1.8c-.5.3-1.1.5-1.9.5-1.6 0-2.8-.7-2.8-2.8zM274.3 62.9c0-3.6 2.7-6.5 6.4-6.5 2.3 0 3.7.8 4.9 1.9l-1.4 1.6c-1-.9-2.1-1.5-3.5-1.5-2.4 0-4.1 1.9-4.1 4.4 0 2.4 1.7 4.4 4.1 4.4 1.5 0 2.5-.6 3.6-1.6l1.4 1.4c-1.3 1.4-2.7 2.2-5.1 2.2-3.6.1-6.3-2.7-6.3-6.3zM287.2 64.4c0-2.7 2.1-5 5-5s5 2.2 5 4.9-2.1 4.9-5 4.9c-2.8.1-5-2.1-5-4.8zm7.9 0c0-1.7-1.2-3.1-2.9-3.1s-2.8 1.4-2.8 3 1.2 3 2.9 3c1.7.1 2.8-1.2 2.8-2.9zM299.6 59.7h2.2v1.4c.6-.9 1.5-1.6 2.9-1.6 2.1 0 3.4 1.4 3.4 3.6v6h-2.2v-5.4c0-1.5-.7-2.3-2-2.3-1.2 0-2.1.9-2.1 2.3V69h-2.2v-9.3zM310.6 59.7h2.2v1.4c.6-.9 1.5-1.6 2.9-1.6 2.1 0 3.4 1.4 3.4 3.6v6h-2.2v-5.4c0-1.5-.7-2.3-2-2.3-1.2 0-2.1.9-2.1 2.3V69h-2.2v-9.3zM321.3 64.4c0-2.7 1.9-4.9 4.6-4.9 3 0 4.5 2.4 4.5 5.1v.6h-6.9c.2 1.5 1.3 2.4 2.7 2.4 1.1 0 1.8-.4 2.6-1.1l1.3 1.1c-.9 1.1-2.1 1.8-3.9 1.8-2.8-.1-4.9-2.1-4.9-5zm7-.7c-.1-1.4-1-2.5-2.4-2.5-1.3 0-2.2 1-2.4 2.5h4.8zM332.2 64.4c0-2.7 2.1-5 4.9-5 1.8 0 2.9.7 3.8 1.6l-1.4 1.4c-.7-.7-1.4-1.2-2.4-1.2-1.6 0-2.7 1.4-2.7 3 0 1.7 1.2 3 2.8 3 1 0 1.7-.5 2.4-1.2l1.3 1.3c-.9 1-2 1.8-3.9 1.8-2.8.2-4.8-2-4.8-4.7zM343.4 66.5v-5h-1.2v-1.9h1.2V57h2.2v2.6h2.5v1.9h-2.5v4.6c0 .8.4 1.2 1.2 1.2.5 0 .9-.1 1.3-.3v1.8c-.5.3-1.1.5-1.9.5-1.7 0-2.8-.7-2.8-2.8z"></path></svg>