<?xml version="1.0" encoding="UTF-8"?>
<!DOCTYPE svg PUBLIC "-//W3C//DTD SVG 1.0//EN" "http://www.w3.org/TR/2001/REC-SVG-20010904/DTD/svg10.dtd">
<!-- Creator: CorelDRAW 2017 -->
<svg xmlns="http://www.w3.org/2000/svg" xml:space="preserve" width="1797px" height="304px" version="1.0" style="shape-rendering:geometricPrecision; text-rendering:geometricPrecision; image-rendering:optimizeQuality; fill-rule:evenodd; clip-rule:evenodd"
viewBox="0 0 1795.79 303.87"
 xmlns:xlink="http://www.w3.org/1999/xlink">
 <defs>
  <style type="text/css">
   <![CDATA[
    .str9 {stroke:black;stroke-width:13.6;stroke-miterlimit:2.61313}
    .str11 {stroke:black;stroke-width:4.27;stroke-miterlimit:2.61313}
    .str10 {stroke:black;stroke-width:4.27;stroke-miterlimit:2.61313}
    .str12 {stroke:black;stroke-width:4.27;stroke-miterlimit:2.61313}
    .str14 {stroke:black;stroke-width:4.27;stroke-miterlimit:2.61313}
    .str13 {stroke:black;stroke-width:4.27;stroke-miterlimit:2.61313}
    .str15 {stroke:black;stroke-width:4.27;stroke-miterlimit:2.61313}
    .str7 {stroke:black;stroke-width:4.27;stroke-miterlimit:2.61313}
    .str8 {stroke:black;stroke-width:4.27;stroke-miterlimit:2.61313}
    .str6 {stroke:black;stroke-width:4.27;stroke-miterlimit:2.61313}
    .str0 {stroke:black;stroke-width:4.16;stroke-miterlimit:2.61313}
    .str3 {stroke:black;stroke-width:4.16;stroke-miterlimit:2.61313}
    .str1 {stroke:black;stroke-width:4.16;stroke-miterlimit:2.61313}
    .str4 {stroke:black;stroke-width:4.16;stroke-miterlimit:2.61313}
    .str2 {stroke:black;stroke-width:4.16;stroke-miterlimit:2.61313}
    .str5 {stroke:black;stroke-width:13.6;stroke-miterlimit:2.61313}
    .fil3 {fill:none}
    .fil0 {fill:none;fill-rule:nonzero}
    .fil4 {fill:black}
    .fil1 {fill:black;fill-rule:nonzero}
    .fil2 {fill:#FBC800;fill-rule:nonzero}
   ]]>
  </style>
 </defs>
 <g id="Layer_x0020_1">
  <metadata id="CorelCorpID_0Corel-Layer"/>
  <g id="_2180419222400">
   <g>
    <g>
     <path class="fil0 str0" d="M1774.01 139.32l-47.08 0 0 158.81 -54.52 0 0 -158.81 -30 0 0 -26.28 30 -14.7 0 -14.64c0,-22.74 5.61,-39.33 16.77,-49.76 11.22,-10.49 29.15,-15.73 53.79,-15.73 18.78,0 35.49,2.8 50.19,8.41l-13.97 39.95c-10.91,-3.48 -21.04,-5.19 -30.31,-5.19 -7.74,0 -13.35,2.32 -16.77,6.89 -3.47,4.58 -5.18,10.43 -5.18,17.57l0 12.5 47.08 0 0 40.98z"/>
     <path id="1" class="fil1" d="M1774.01 139.32l-47.08 0 0 158.81 -54.52 0 0 -158.81 -30 0 0 -26.28 30 -14.7 0 -14.64c0,-22.74 5.61,-39.33 16.77,-49.76 11.22,-10.49 29.15,-15.73 53.79,-15.73 18.78,0 35.49,2.8 50.19,8.41l-13.97 39.95c-10.91,-3.48 -21.04,-5.19 -30.31,-5.19 -7.74,0 -13.35,2.32 -16.77,6.89 -3.47,4.58 -5.18,10.43 -5.18,17.57l0 12.5 47.08 0 0 40.98z"/>
    </g>
    <g>
     <path class="fil0 str1" d="M1619.73 139.32l-47.08 0 0 158.81 -54.52 0 0 -158.81 -30.01 0 0 -26.28 30.01 -14.7 0 -14.64c0,-22.74 5.61,-39.33 16.77,-49.76 11.22,-10.49 29.15,-15.73 53.78,-15.73 18.79,0 35.5,2.8 50.2,8.41l-13.97 39.95c-10.92,-3.48 -21.04,-5.19 -30.31,-5.19 -7.74,0 -13.36,2.32 -16.77,6.89 -3.48,4.58 -5.18,10.43 -5.18,17.57l0 12.5 47.08 0 0 40.98z"/>
     <path id="1" class="fil1" d="M1619.73 139.32l-47.08 0 0 158.81 -54.52 0 0 -158.81 -30.01 0 0 -26.28 30.01 -14.7 0 -14.64c0,-22.74 5.61,-39.33 16.77,-49.76 11.22,-10.49 29.15,-15.73 53.78,-15.73 18.79,0 35.5,2.8 50.2,8.41l-13.97 39.95c-10.92,-3.48 -21.04,-5.19 -30.31,-5.19 -7.74,0 -13.36,2.32 -16.77,6.89 -3.48,4.58 -5.18,10.43 -5.18,17.57l0 12.5 47.08 0 0 40.98z"/>
    </g>
    <g>
     <path class="fil0 str2" d="M1464.28 197.99c0,32.5 -8.54,57.93 -25.68,76.29 -17.14,18.36 -41.04,27.5 -71.66,27.5 -19.14,0 -36.04,-4.2 -50.73,-12.62 -14.64,-8.36 -25.86,-20.43 -33.73,-36.16 -7.87,-15.74 -11.77,-34.09 -11.77,-55.01 0,-32.69 8.48,-58.06 25.49,-76.17 17.08,-18.11 40.98,-27.14 71.84,-27.14 19.15,0 36.04,4.15 50.74,12.5 14.64,8.36 25.86,20.31 33.73,35.92 7.86,15.61 11.77,33.91 11.77,54.89zm-138.01 -0.12c0,19.76 3.23,34.7 9.7,44.82 6.52,10.12 17.07,15.19 31.71,15.19 14.51,0 24.94,-5.01 31.34,-15.07 6.35,-10.06 9.52,-25.06 9.52,-44.94 0,-19.76 -3.17,-34.58 -9.64,-44.46 -6.4,-9.88 -16.95,-14.82 -31.59,-14.82 -14.51,0 -25,4.94 -31.41,14.76 -6.46,9.82 -9.63,24.64 -9.63,44.52z"/>
     <path id="1" class="fil1" d="M1464.28 197.99c0,32.5 -8.54,57.93 -25.68,76.29 -17.14,18.36 -41.04,27.5 -71.66,27.5 -19.14,0 -36.04,-4.2 -50.73,-12.62 -14.64,-8.36 -25.86,-20.43 -33.73,-36.16 -7.87,-15.74 -11.77,-34.09 -11.77,-55.01 0,-32.69 8.48,-58.06 25.49,-76.17 17.08,-18.11 40.98,-27.14 71.84,-27.14 19.15,0 36.04,4.15 50.74,12.5 14.64,8.36 25.86,20.31 33.73,35.92 7.86,15.61 11.77,33.91 11.77,54.89zm-138.01 -0.12c0,19.76 3.23,34.7 9.7,44.82 6.52,10.12 17.07,15.19 31.71,15.19 14.51,0 24.94,-5.01 31.34,-15.07 6.35,-10.06 9.52,-25.06 9.52,-44.94 0,-19.76 -3.17,-34.58 -9.64,-44.46 -6.4,-9.88 -16.95,-14.82 -31.59,-14.82 -14.51,0 -25,4.94 -31.41,14.76 -6.46,9.82 -9.63,24.64 -9.63,44.52z"/>
    </g>
    <g>
     <path class="fil0 str3" d="M1157.1 301.78c-32.2,0 -57.33,-8.9 -75.44,-26.65 -18.11,-17.74 -27.14,-42.87 -27.14,-75.37 0,-33.48 8.36,-59.34 25.07,-77.64 16.77,-18.29 39.88,-27.44 69.46,-27.44 28.23,0 50.19,8.05 65.92,24.09 15.74,16.1 23.6,38.24 23.6,66.6l0 26.4 -128.86 0c0.61,15.49 5.19,27.63 13.72,36.35 8.6,8.72 20.68,13.05 36.17,13.05 12.01,0 23.42,-1.28 34.15,-3.78 10.67,-2.5 21.89,-6.47 33.6,-11.96l0 42.21c-9.57,4.75 -19.76,8.35 -30.61,10.67 -10.8,2.31 -24.03,3.47 -39.64,3.47zm-7.69 -168.31c-11.58,0 -20.61,3.66 -27.2,10.97 -6.52,7.32 -10.3,17.69 -11.28,31.11l76.54 0c-0.25,-13.42 -3.72,-23.79 -10.55,-31.11 -6.77,-7.31 -15.98,-10.97 -27.51,-10.97z"/>
     <path id="1" class="fil1" d="M1157.1 301.78c-32.2,0 -57.33,-8.9 -75.44,-26.65 -18.11,-17.74 -27.14,-42.87 -27.14,-75.37 0,-33.48 8.36,-59.34 25.07,-77.64 16.77,-18.29 39.88,-27.44 69.46,-27.44 28.23,0 50.19,8.05 65.92,24.09 15.74,16.1 23.6,38.24 23.6,66.6l0 26.4 -128.86 0c0.61,15.49 5.19,27.63 13.72,36.35 8.6,8.72 20.68,13.05 36.17,13.05 12.01,0 23.42,-1.28 34.15,-3.78 10.67,-2.5 21.89,-6.47 33.6,-11.96l0 42.21c-9.57,4.75 -19.76,8.35 -30.61,10.67 -10.8,2.31 -24.03,3.47 -39.64,3.47zm-7.69 -168.31c-11.58,0 -20.61,3.66 -27.2,10.97 -6.52,7.32 -10.3,17.69 -11.28,31.11l76.54 0c-0.25,-13.42 -3.72,-23.79 -10.55,-31.11 -6.77,-7.31 -15.98,-10.97 -27.51,-10.97z"/>
    </g>
    <g>
     <polygon class="fil0 str1" points="899.38,189.45 923.16,159.08 979.02,98.34 1040.49,98.34 961.21,185 1045.31,298.13 982.44,298.13 924.93,217.14 901.51,235.92 901.51,298.13 847.05,298.13 847.05,20.04 901.51,20.04 901.51,144.08 898.64,189.45 "/>
     <polygon id="1" class="fil1" points="899.38,189.45 923.16,159.08 979.02,98.34 1040.49,98.34 961.21,185 1045.31,298.13 982.44,298.13 924.93,217.14 901.51,235.92 901.51,298.13 847.05,298.13 847.05,20.04 901.51,20.04 901.51,144.08 898.64,189.45 "/>
    </g>
    <g>
     <path class="fil0 str4" d="M736.79 205.55l-21.04 0.73c-15.86,0.49 -27.69,3.3 -35.43,8.6 -7.75,5.25 -11.59,13.23 -11.59,23.97 0,15.37 8.84,23.05 26.47,23.05 12.62,0 22.69,-3.66 30.25,-10.92 7.56,-7.25 11.34,-16.95 11.34,-28.96l0 -16.47zm16.1 92.58l-10.55 -27.14 -1.4 0c-9.21,11.58 -18.66,19.63 -28.36,24.09 -9.7,4.45 -22.32,6.7 -37.93,6.7 -19.21,0 -34.28,-5.48 -45.31,-16.46 -11.04,-10.98 -16.53,-26.59 -16.53,-46.84 0,-21.22 7.44,-36.89 22.26,-46.96 14.82,-10.06 37.2,-15.67 67.08,-16.71l34.64 -1.09 0 -8.79c0,-20.24 -10.37,-30.37 -31.1,-30.37 -15.92,0 -34.7,4.82 -56.23,14.46l-18.05 -36.72c22.99,-12.01 48.48,-17.99 76.47,-17.99 26.78,0 47.33,5.86 61.6,17.51 14.33,11.64 21.47,29.39 21.47,53.24l0 133.07 -38.06 0z"/>
     <path id="1" class="fil1" d="M736.79 205.55l-21.04 0.73c-15.86,0.49 -27.69,3.3 -35.43,8.6 -7.75,5.25 -11.59,13.23 -11.59,23.97 0,15.37 8.84,23.05 26.47,23.05 12.62,0 22.69,-3.66 30.25,-10.92 7.56,-7.25 11.34,-16.95 11.34,-28.96l0 -16.47zm16.1 92.58l-10.55 -27.14 -1.4 0c-9.21,11.58 -18.66,19.63 -28.36,24.09 -9.7,4.45 -22.32,6.7 -37.93,6.7 -19.21,0 -34.28,-5.48 -45.31,-16.46 -11.04,-10.98 -16.53,-26.59 -16.53,-46.84 0,-21.22 7.44,-36.89 22.26,-46.96 14.82,-10.06 37.2,-15.67 67.08,-16.71l34.64 -1.09 0 -8.79c0,-20.24 -10.37,-30.37 -31.1,-30.37 -15.92,0 -34.7,4.82 -56.23,14.46l-18.05 -36.72c22.99,-12.01 48.48,-17.99 76.47,-17.99 26.78,0 47.33,5.86 61.6,17.51 14.33,11.64 21.47,29.39 21.47,53.24l0 133.07 -38.06 0z"/>
    </g>
    <g>
     <polygon class="fil0 str1" points="548.41,298.13 493.04,298.13 493.04,82.97 422.11,82.97 422.11,36.87 619.33,36.87 619.33,82.97 548.41,82.97 "/>
     <polygon id="1" class="fil1" points="548.41,298.13 493.04,298.13 493.04,82.97 422.11,82.97 422.11,36.87 619.33,36.87 619.33,82.97 548.41,82.97 "/>
    </g>
   </g>
   <g>
    <g>
     <g>
      <g>
       <path class="fil0 str5" d="M162.03 135.85l-0.07 0.12 0.07 -0.12 0 0zm-56.69 103.16l65.38 0 0 54.99 -159.23 0 59.54 -108.43 -63.72 0 0 -54.71 159.23 0 -61.2 108.15z"/>
       <path id="1" class="fil2" d="M162.03 135.85l-0.07 0.12 0.07 -0.12 0 0zm-56.69 103.16l65.38 0 0 54.99 -159.23 0 59.54 -108.43 -63.72 0 0 -54.71 159.23 0 -61.2 108.15z"/>
      </g>
      <g>
       <g>
        <polygon class="fil1" points="26.89,156.22 26.89,130.86 31.16,130.86 31.16,156.22 "/>
       </g>
       <g>
        <polygon class="fil1" points="48.98,145.01 48.98,130.86 53.26,130.86 53.26,145.01 "/>
       </g>
       <g>
        <polygon class="fil1" points="71.08,156.22 71.08,130.86 75.35,130.86 75.35,156.22 "/>
       </g>
       <g>
        <polygon class="fil1" points="93.17,145.01 93.17,130.86 97.46,130.86 97.46,145.01 "/>
       </g>
       <g>
        <polygon class="fil1" points="115.27,156.22 115.27,130.86 119.55,130.86 119.55,156.22 "/>
       </g>
       <g>
        <polygon class="fil1" points="137.36,145.01 137.36,130.86 141.65,130.86 141.65,145.01 "/>
       </g>
      </g>
      <g>
       <g>
        <line class="fil3 str6" x1="44.05" y1="294" x2="44.05" y2= "268.65" />
       </g>
       <g>
        <polygon class="fil1" points="64,279.85 68.29,279.85 68.29,294 64,294 "/>
       </g>
       <g>
        <line class="fil3 str7" x1="88.25" y1="294" x2="88.25" y2= "268.65" />
       </g>
       <g>
        <polygon class="fil1" points="108.2,279.85 112.49,279.85 112.49,294 108.2,294 "/>
       </g>
       <g>
        <line class="fil3 str8" x1="132.44" y1="294" x2="132.44" y2= "268.65" />
       </g>
       <g>
        <polygon class="fil1" points="152.39,279.85 156.68,279.85 156.68,294 152.39,294 "/>
       </g>
      </g>
     </g>
     <g>
      <g>
       <path class="fil0 str9" d="M343.28 135.85l-0.07 0.12 0.07 -0.12 0 0zm-56.69 103.16l65.38 0 0 54.99 -159.23 0 59.54 -108.43 -63.72 0 0 -54.71 159.23 0 -61.2 108.15z"/>
       <path id="1" class="fil2" d="M343.28 135.85l-0.07 0.12 0.07 -0.12 0 0zm-56.69 103.16l65.38 0 0 54.99 -159.23 0 59.54 -108.43 -63.72 0 0 -54.71 159.23 0 -61.2 108.15z"/>
      </g>
      <g>
       <g>
        <line class="fil3 str10" x1="210.27" y1="130.86" x2="210.27" y2= "156.22" />
       </g>
       <g>
        <polygon class="fil1" points="230.22,145.01 230.22,130.86 234.51,130.86 234.51,145.01 "/>
       </g>
       <g>
        <line class="fil3 str11" x1="254.46" y1="130.86" x2="254.46" y2= "156.22" />
       </g>
       <g>
        <polygon class="fil1" points="274.42,145.01 274.42,130.86 278.71,130.86 278.71,145.01 "/>
       </g>
       <g>
        <line class="fil3 str12" x1="298.66" y1="130.86" x2="298.66" y2= "156.22" />
       </g>
       <g>
        <polygon class="fil1" points="318.61,145.01 318.61,130.86 322.9,130.86 322.9,145.01 "/>
       </g>
      </g>
      <g>
       <g>
        <line class="fil3 str13" x1="225.3" y1="294" x2="225.3" y2= "268.65" />
       </g>
       <g>
        <polygon class="fil1" points="245.25,279.85 249.54,279.85 249.54,294 245.25,294 "/>
       </g>
       <g>
        <line class="fil3 str14" x1="269.49" y1="294" x2="269.49" y2= "268.65" />
       </g>
       <g>
        <polygon class="fil1" points="289.45,279.85 293.73,279.85 293.73,294 289.45,294 "/>
       </g>
       <g>
        <line class="fil3 str15" x1="313.69" y1="294" x2="313.69" y2= "268.65" />
       </g>
       <g>
        <polygon class="fil1" points="333.64,279.85 337.93,279.85 337.93,294 333.64,294 "/>
       </g>
      </g>
     </g>
    </g>
    <path class="fil4" d="M3.84 84.74c117.2,0 234.4,0 351.6,0l0 -15.34 0 -43.36 -15.34 0 0 43.36 -69.31 0 0 -33.25 -15.34 0 0 33.25 -68.14 0 0 -69.4 -15.34 0 0 69.4 -68.14 0 0 -33.25 -15.34 0 0 33.25 -69.31 0 0 -43.36 -15.34 0 0 43.36 0 15.34z"/>
   </g>
  </g>
 </g>
</svg>
